<svg xmlns="http://www.w3.org/2000/svg" version="1.1" xmlns:xlink="http://www.w3.org/1999/xlink" xmlns:svgjs="http://svgjs.dev/svgjs" width="2000" height="3710" viewBox="0 0 2000 3710"><g transform="matrix(1,0,0,1,-0.43421052631595103,-5.249255319148233)"><svg viewBox="0 0 76 141" data-background-color="#046380" preserveAspectRatio="xMidYMid meet" height="3710" width="2000" xmlns="http://www.w3.org/2000/svg" xmlns:xlink="http://www.w3.org/1999/xlink"><g id="tight-bounds" transform="matrix(1,0,0,1,0.01650000000000773,0.19949999999997203)"><svg viewBox="0 0 75.96657527733757 140.60052000000002" height="140.60052000000002" width="75.96657527733757"><g><svg viewBox="0 0 75.96657527733757 140.60052000000002" height="140.60052000000002" width="75.96657527733757"><g><svg viewBox="0 0 75.96657527733757 140.60052000000002" height="140.60052000000002" width="75.96657527733757"><g><path d="M0 140.601v-140.601h75.967v140.601z" fill="#ffffff" stroke="transparent" stroke-width="0" rx="0%" data-fill-palette-color="tertiary"></path><path d="M3.283 137.317v-134.034h69.4v134.034z" fill="#046380" stroke="transparent" stroke-width="0" rx="0%" data-fill-palette-color="quaternary"></path><path d="M9.85 130.751v-120.901h56.267v120.901z" fill="#ffffff" stroke="transparent" stroke-width="0" data-fill-palette-color="tertiary"></path></g><g transform="matrix(1,0,0,1,19.69974,19.69974)"><svg viewBox="0 0 36.56709527733757 101.20104000000002" height="101.20104000000002" width="36.56709527733757"><g><svg viewBox="0 0 36.56709527733757 101.20104000000002" height="101.20104000000002" width="36.56709527733757"><g transform="matrix(1,0,0,1,0,0)"><svg width="36.56709527733757" viewBox="0.800000011920929 -31.049999237060547 11.399999618530273 31.549999237060547" height="101.20104000000002" data-palette-color="#046380"><path d="M3.8-31.05L12.2-31.05 12.2-6.25Q12.2-2.4 10.45-0.95 8.7 0.5 4 0.5L4 0.5 1.45 0.5 0.8-6.3 2.5-6.3Q3.35-6.3 3.58-6.53 3.8-6.75 3.8-7.5L3.8-7.5 3.8-31.05Z" opacity="1" transform="matrix(1,0,0,1,0,0)" fill="#046380" class="undefined-text-0" data-fill-palette-color="quaternary" id="text-0"></path></svg></g></svg></g></svg></g></svg></g><g></g></svg></g><defs></defs></svg><rect width="75.96657527733757" height="140.60052000000002" fill="none" stroke="none" visibility="hidden"></rect></g></svg></g></svg>